<svg xmlns="http://www.w3.org/2000/svg" viewBox="0 0 512 512" width="512" height="512">
  <defs>
    <linearGradient id="bgGrad" x1="0%" y1="0%" x2="100%" y2="100%">
      <stop offset="0%" stop-color="#1e1b4b"/>
      <stop offset="50%" stop-color="#0f172a"/>
      <stop offset="100%" stop-color="#020617"/>
    </linearGradient>
    <linearGradient id="shieldGrad" x1="0%" y1="0%" x2="100%" y2="100%">
      <stop offset="0%" stop-color="#6366f1"/>
      <stop offset="50%" stop-color="#4f46e5"/>
      <stop offset="100%" stop-color="#10b981"/>
    </linearGradient>
    <linearGradient id="glowGrad" x1="0%" y1="0%" x2="100%" y2="100%">
      <stop offset="0%" stop-color="#34d399"/>
      <stop offset="100%" stop-color="#06b6d4"/>
    </linearGradient>
    <filter id="glow" x="-20%" y="-20%" width="140%" height="140%">
      <feGaussianBlur stdDeviation="16" result="blur"/>
      <feComposite in="SourceGraphic" in2="blur" operator="over"/>
    </filter>
  </defs>

  <!-- Background rounded rect -->
  <rect width="512" height="512" rx="120" fill="url(#bgGrad)"/>
  <rect width="504" height="504" x="4" y="4" rx="116" fill="none" stroke="url(#shieldGrad)" stroke-width="6" opacity="0.6"/>

  <!-- Shield Base -->
  <path d="M256 70 C340 100 400 120 400 210 C400 330 320 400 256 445 C192 400 112 330 112 210 C112 120 172 100 256 70 Z" 
        fill="url(#shieldGrad)" opacity="0.9" filter="url(#glow)"/>

  <!-- Shield Inner Dark cutout -->
  <path d="M256 95 C325 120 375 138 375 215 C375 315 308 375 256 415 C204 375 137 315 137 215 C137 138 187 120 256 95 Z" 
        fill="#0b0f19"/>

  <!-- GPS Pin inside shield -->
  <path d="M256 160 C223 160 196 187 196 220 C196 265 256 330 256 330 C256 330 316 265 316 220 C316 187 289 160 256 160 Z" 
        fill="url(#glowGrad)"/>

  <!-- Pin Center Circle -->
  <circle cx="256" cy="220" r="22" fill="#0f172a"/>
  <circle cx="256" cy="220" r="10" fill="#34d399"/>

  <!-- Pulse Rings -->
  <circle cx="256" cy="220" r="42" fill="none" stroke="#10b981" stroke-width="3" opacity="0.5" stroke-dasharray="4 4"/>
</svg>